#!OML:ASF F:\VICON\USERDATA\INSTALL\rory3\rory3.ASF
:FULLY-SPECIFIED
:DEGREES
1516
root 0.469487 15.9114 -0.297122 -3.52316 -5.04505 -1.15127
lowerback 6.04041 -1.54328 -1.15046
upperback -4.02859 -2.12232 0.807553
thorax -7.5425 -0.958134 1.75726
lowerneck -6.0078 -14.558 -16.9008
upperneck 9.5435 -20.2905 16.5227
head 7.35933 -9.6428 5.79893
rclavicle -6.00702e-015 -1.20265e-014
rhumerus -1.10766 26.4055 -79.3885
rradius 127.957
rwrist 22.9948
rhand 25.2333 7.44654
rfingers 7.12502
rthumb 49.3753 -14.0981
lclavicle -6.00702e-015 -1.20265e-014
lhumerus -23.4252 -28.4309 81.9187
lradius 106.548
lwrist -4.06394
lhand 6.52383 34.6053
lfingers 7.12502
lthumb 31.8223 61.8467
rfemur -2.383 16.5261 18.5167
rtibia 23.2735
rfoot -13.1034 -13.0525
rtoes -16.9191
lfemur 0.212848 -11.2617 -18.1361
ltibia 21.2235
lfoot -14.5845 12.9886
ltoes -12.1033
1517
root 0.474492 15.9014 -0.287239 -3.72029 -5.12582 -1.15151
lowerback 6.0078 -1.58949 -1.09718
upperback -4.04153 -2.17841 0.816413
thorax -7.53692 -0.988202 1.74269
lowerneck -5.97002 -14.6625 -16.7924
upperneck 9.33887 -20.4191 16.4853
head 7.29318 -9.70745 5.75413
rclavicle 1.67352e-014 -1.24737e-014
rhumerus 0.517981 25.3782 -78.8395
rradius 128.169
rwrist 24.1238
rhand 24.0841 7.2333
rfingers 7.12502
rthumb 48.319 -14.8293
lclavicle 1.67352e-014 -1.24737e-014
lhumerus -24.7666 -29.5771 82.9828
lradius 106.218
lwrist -3.8079
lhand 6.78857 35.0581
lfingers 7.12502
lthumb 32.0744 62.2491
rfemur -2.27409 16.4752 18.5581
rtibia 23.5302
rfoot -13.2034 -13.0011
rtoes -17.3873
lfemur 0.402153 -11.1563 -18.1986
ltibia 21.3936
lfoot -14.7258 12.9394
ltoes -12.1283
1518
root 0.478068 15.8922 -0.277549 -3.94003 -5.20742 -1.18941
lowerback 5.98201 -1.65029 -1.04422
upperback -4.04268 -2.25239 0.850121
thorax -7.52113 -1.0265 1.75647
lowerneck -5.94025 -14.744 -16.6821
upperneck 9.14665 -20.5157 16.4475
head 7.22663 -9.75646 5.71436
rclavicle 5.46658e-016 2.39536e-014
rhumerus 2.17054 24.0978 -78.165
rradius 128.275
rwrist 24.3005
rhand 23.745 6.98536
rfingers 7.12502
rthumb 48.0065 -15.2244
lclavicle 5.46658e-016 2.39536e-014
lhumerus -26.0878 -30.6105 84.0747
lradius 106.252
lwrist -3.30619
lhand 7.2776 35.6359
lfingers 7.12502
lthumb 32.5399 62.7321
rfemur -2.13097 16.4137 18.6513
rtibia 23.7962
rfoot -13.3609 -12.8793
rtoes -17.4238
lfemur 0.562335 -11.0162 -18.2084
ltibia 21.6631
lfoot -14.8645 12.8527
ltoes -12.094
1519
root 0.480422 15.8803 -0.26996 -4.18747 -5.2873 -1.26305
lowerback 5.97638 -1.70395 -0.978772
upperback -3.98706 -2.31524 0.888886
thorax -7.45697 -1.06071 1.76639
lowerneck -5.98364 -14.8497 -16.5488
upperneck 8.88893 -20.635 16.455
head 7.1586 -9.81023 5.67759
rclavicle -1.8313e-014 1.35174e-014
rhumerus 3.74581 22.8776 -77.662
rradius 128.146
rwrist 24.0404
rhand 24.0457 6.93175
rfingers 7.12502
rthumb 48.2836 -15.1477
lclavicle -1.8313e-014 1.35174e-014
lhumerus -27.1152 -31.446 85.0535
lradius 106.279
lwrist -2.81909
lhand 8.09016 35.4975
lfingers 7.12502
lthumb 33.3127 62.4312
rfemur -1.9452 16.4281 18.8036
rtibia 24.0374
rfoot -13.544 -12.7904
rtoes -17.1167
lfemur 0.688301 -10.8386 -18.1668
ltibia 22.0429
lfoot -15.0825 12.7167
ltoes -11.9611
1520
root 0.483005 15.8677 -0.266559 -4.41138 -5.38414 -1.38441
lowerback 6.06198 -1.70821 -0.766131
upperback -3.97988 -2.30393 0.853645
thorax -7.50897 -1.06639 1.61207
lowerneck -5.97123 -14.9693 -16.4366
upperneck 8.71935 -20.806 16.5302
head 7.12832 -9.88785 5.65899
rclavicle 4.24033e-014 -2.78299e-015
rhumerus 4.83594 21.8229 -77.4176
rradius 127.842
rwrist 24.1231
rhand 23.9728 6.96494
rfingers 7.12502
rthumb 48.2164 -15.1463
lclavicle 4.24033e-014 -2.78299e-015
lhumerus -28.0353 -32.2938 85.9542
lradius 106.317
lwrist -2.34952
lhand 8.70744 35.2985
lfingers 7.12502
lthumb 33.8994 62.1045
rfemur -1.82458 16.5173 19.012
rtibia 24.3132
rfoot -13.7109 -12.8165
rtoes -17.1705
lfemur 0.771472 -10.6806 -18.0618
ltibia 22.4146
lfoot -15.2528 12.5986
ltoes -12.1506
